<svg xmlns="http://www.w3.org/2000/svg" viewBox="0 0 800 800" width="100%" height="100%">
  <defs>
    <style>
      @keyframes float {
        0%, 100% { transform: translateY(0px); }
        50% { transform: translateY(-20px); }
      }
      
      @keyframes pulse {
        0%, 100% { fill-opacity: 1; }
        50% { fill-opacity: 0.75; }
      }
      
      .cube-group {
        animation: float 4s ease-in-out infinite;
        transform-origin: 400px 400px;
      }
      
      .discord-logo {
        animation: pulse 3s ease-in-out infinite;
      }
    </style>
  </defs>

  <g class="cube-group">
    
    <polygon points="400,400 573.2,300 400,200 226.8,300" fill="#5cad59" />
    
    <polygon points="400,400 226.8,300 226.8,500 400,600" fill="#0b5a57" />
    
    <polygon points="400,400 573.2,300 573.2,500 400,600" fill="#41b27f" />

    <g transform="matrix(0.866025, -0.5, 0, 1, 400, 400)">
      
      <g transform="translate(30.15, 47.2) scale(1.1)">
        <path class="discord-logo" d="M107.7,8.07A105.15,105.15,0,0,0,81.47,0a72.06,72.06,0,0,0-3.36,6.83A97.68,97.68,0,0,0,49,6.83,72.37,72.37,0,0,0,45.64,0,105.89,105.89,0,0,0,19.39,8.09C2.79,32.65-1.71,56.6.54,80.21h0A105.73,105.73,0,0,0,32.71,96.36,77.7,77.7,0,0,0,39.6,85.25a68.42,68.42,0,0,1-10.85-5.18c.91-.66,1.8-1.34,2.66-2a75.57,75.57,0,0,0,64.32,0c.87.71,1.76,1.39,2.66,2a68.68,68.68,0,0,1-10.87,5.19,77.67,77.67,0,0,0,6.89,11.1,105.25,105.25,0,0,0,32.19-16.14c2.64-27.38-4.51-51.11-19.32-72.15ZM42.68,65.37c-5.46,0-10-5.06-10-11.32s4.46-11.32,10-11.32,10.09,5.06,10,11.32c0,6.26-4.56,11.32-10,11.32Zm41.72,0c-5.46,0-10-5.06-10-11.32s4.46-11.32,10-11.32,10.09,5.06,10,11.32c0,6.26-4.56,11.32-10,11.32Z" fill="#ffffff"/>
      </g>
      
    </g>
  </g>
</svg>